IKResults
version=1
nRows=7
nColumns=40
inDegrees=yes

Units are S.I. units (second, meters, Newtons, ...)
Angles are in degrees.

endheader
time	pelvis_tilt	pelvis_list	pelvis_rotation	pelvis_tx	pelvis_ty	pelvis_tz	hip_flexion_r	hip_adduction_r	hip_rotation_r	knee_angle_r	knee_angle_r_beta	ankle_angle_r	subtalar_angle_r	mtp_angle_r	hip_flexion_l	hip_adduction_l	hip_rotation_l	knee_angle_l	knee_angle_l_beta	ankle_angle_l	subtalar_angle_l	mtp_angle_l	lumbar_extension	lumbar_bending	lumbar_rotation	arm_flex_r	arm_add_r	arm_rot_r	elbow_flex_r	pro_sup_r	wrist_flex_r	wrist_dev_r	arm_flex_l	arm_add_l	arm_rot_l	elbow_flex_l	pro_sup_l	wrist_flex_l	wrist_dev_l
      0.26000000	     16.93877555	      3.68193694	     -1.79726435	     -0.72496262	      0.95135617	     -1.45001097	     -5.14054767	     -3.25255195	     -3.00626618	    -61.84538286	     -1.07940556	     -0.33692225	    -15.94837587	     14.01167138	    -13.56258166	     -4.34564834	     13.11466241	    -15.76345141	     -0.27512413	      8.71685252	     -0.84846106	     -5.84252496	    -22.76907472	     -5.37107579	     -0.77881355	     -4.14329927	    -13.33478131	      1.53790201	     29.19546324	     89.95437384	      0.00000000	      0.00000000	     -1.00985599	      9.24746019	      7.51854166	     15.89241737	     89.95437384	      0.00000000	      0.00000000
      0.27000000	     16.97889547	      3.04307015	     -1.17302856	     -0.71163899	      0.95224507	     -1.45195144	     -3.92470746	     -2.47591014	     -3.66882241	    -60.84299375	     -1.06191057	      1.36466992	    -15.56988109	     13.35303512	    -14.79723180	     -3.67137715	     12.73294976	    -15.28987331	     -0.26685863	      9.18049372	     -0.89478622	     -5.92679318	    -22.92659545	     -4.40994609	     -1.48343162	     -4.68158356	    -13.26243395	      1.73236072	     28.36429727	     89.95437384	      0.00000000	      0.00000000	      0.08527559	      9.37669337	      7.86697508	     16.59450240	     89.95437384	      0.00000000	      0.00000000
      0.28000000	     16.67671484	      2.76866315	     -0.95830992	     -0.69880406	      0.95212047	     -1.45379058	     -2.05093004	     -2.27260120	     -4.11949523	    -60.08014771	     -1.04859639	      2.56886687	    -15.74703581	     13.02545940	    -15.54836704	     -3.48491820	     12.89437129	    -14.89365998	     -0.25994340	      9.55358031	     -0.94759941	     -5.89184224	    -22.74342307	     -3.93031985	     -1.80782564	     -5.27088479	    -13.25010330	      1.84757041	     27.66363163	     89.95437384	      0.00000000	      0.00000000	      1.24482092	      9.52563892	      7.92804215	     17.35415987	     89.95437384	      0.00000000	      0.00000000
      0.29000000	     16.60005693	      2.14867322	     -0.58012173	     -0.68605584	      0.95216962	     -1.45521605	     -0.68542611	     -1.41768347	     -4.34717239	    -58.72703787	     -1.02498017	      3.90550323	    -15.73752432	     12.63352122	    -16.59647457	     -2.91772780	     12.31140830	    -14.38955517	     -0.25114512	     10.12846910	     -0.91829146	     -5.95342579	    -22.83862200	     -3.09034257	     -2.27968304	     -5.67902009	    -13.13122990	      1.75483695	     26.81627896	     89.95437384	      0.00000000	      0.00000000	      2.28504453	      9.68401248	      8.42584373	     18.39189636	     89.95437384	      0.00000000	      0.00000000
      0.30000000	     16.62599951	      1.72989268	     -0.08877374	     -0.67288406	      0.95201395	     -1.45701823	      0.48861155	     -0.98772524	     -5.03098446	    -57.18649893	     -0.99809269	      4.57881331	    -15.75927884	     12.37274910	    -17.77508928	     -2.47474432	     11.88450767	    -13.92047155	     -0.24295806	     10.51845703	     -1.00102311	     -6.03211072	    -22.97775267	     -2.39958724	     -2.81492461	     -6.23879595	    -13.01750855	      1.54706217	     26.04991935	     89.95437384	      0.00000000	      0.00000000	      3.31855224	      9.84068324	      8.88381731	     19.45539304	     89.95437384	      0.00000000	      0.00000000
      0.31000000	     16.38205870	      1.41365126	      0.02824342	     -0.66040547	      0.95106467	     -1.45836751	      2.12771948	     -0.67901304	     -5.33055943	    -55.69597282	     -0.97207811	      5.13379723	    -15.68157021	     12.11496035	    -18.51088475	     -2.24355183	     11.62317086	    -13.66103512	     -0.23843004	     11.10251976	     -0.99332653	     -6.04851153	    -22.90226211	     -1.94517862	     -3.03730463	     -6.69630100	    -12.93897564	      1.37760582	     25.26239866	     89.95437384	      0.00000000	      0.00000000	      4.40968875	     10.01530438	      9.16069219	     20.56546244	     89.95437384	      0.00000000	      0.00000000
      0.32000000	     16.28096252	      1.06594216	      0.42094356	     -0.64722780	      0.95010083	     -1.45997532	      3.34724254	     -0.35859123	     -5.95643748	    -53.81275673	     -0.93920978	      5.71480373	    -15.67728903	     11.93652873	    -19.43375053	     -1.87383256	     11.25884807	    -13.38568004	     -0.23362419	     11.61060124	     -1.02274776	     -6.10074853	    -22.88893833	     -1.36490843	     -3.48041711	     -7.22376487	    -12.78323250	      0.80542364	     24.38255432	     89.95437384	      0.00000000	      0.00000000	      5.36298634	     10.17110168	      9.61308570	     21.79516318	     89.95437384	      0.00000000	      0.00000000
